<svg width="126" height="126" viewBox="0 0 126 126" fill="none" xmlns="http://www.w3.org/2000/svg">
<g clip-path="url(#clip0_23_36)">
<path d="M63 11.8125C76.5758 11.8125 89.5955 17.2055 99.195 26.805C108.795 36.4045 114.188 49.4242 114.188 63C114.188 76.5758 108.795 89.5955 99.195 99.195C89.5955 108.795 76.5758 114.188 63 114.188C49.4242 114.188 36.4045 108.795 26.805 99.195C17.2055 89.5955 11.8125 76.5758 11.8125 63C11.8125 49.4242 17.2055 36.4045 26.805 26.805C36.4045 17.2055 49.4242 11.8125 63 11.8125ZM63 126C79.7086 126 95.7329 119.363 107.548 107.548C119.363 95.7329 126 79.7086 126 63C126 46.2914 119.363 30.2671 107.548 18.4523C95.7329 6.63748 79.7086 0 63 0C46.2914 0 30.2671 6.63748 18.4523 18.4523C6.63748 30.2671 0 46.2914 0 63C0 79.7086 6.63748 95.7329 18.4523 107.548C30.2671 119.363 46.2914 126 63 126ZM90.8086 51.4336C93.1219 49.1203 93.1219 45.3797 90.8086 43.091C88.4953 40.8023 84.7547 40.7777 82.466 43.091L55.1496 70.4074L43.5832 58.841C41.2699 56.5277 37.5293 56.5277 35.2406 58.841C32.952 61.1543 32.9273 64.8949 35.2406 67.1836L50.9906 82.9336C53.3039 85.2469 57.0445 85.2469 59.3332 82.9336L90.8086 51.4336Z" fill="#3CF738"/>
</g>
<defs>
<clipPath id="clip0_23_36">
<rect width="126" height="126" fill="white"/>
</clipPath>
</defs>
</svg>
