<svg width="373" height="30" viewBox="0 0 373 30" fill="none" xmlns="http://www.w3.org/2000/svg">
<g clip-path="url(#clip0_1_4)">
<path d="M15.1336 30C13.1453 30.0531 11.1667 29.7035 9.31715 28.9723C7.46757 28.2412 5.78518 27.1435 4.37128 25.7455C2.95738 24.3475 1.84121 22.678 1.08997 20.8375C0.338735 18.997 -0.0320282 17.0237 4.6487e-06 15.0362C-0.0238716 13.0415 0.354336 11.0624 1.11209 9.21687C1.86984 7.37132 2.99163 5.6971 4.4106 4.29399C5.82956 2.89087 7.51667 1.78758 9.37138 1.04986C11.2261 0.312138 13.2104 -0.0449086 15.2061 -3.22983e-06C17.1944 -0.0550104 19.1733 0.292645 21.0236 1.02203C22.8739 1.75142 24.5574 2.84745 25.9726 4.24413C27.3879 5.64081 28.5057 7.30926 29.2587 9.14901C30.0117 10.9888 30.3844 12.9618 30.3542 14.9492C30.3781 16.9459 29.9995 18.9269 29.241 20.7742C28.4826 22.6215 27.3597 24.2973 25.9394 25.7018C24.5191 27.1062 22.8304 28.2106 20.9739 28.949C19.1174 29.6875 17.1312 30.0449 15.1336 30ZM15.1336 4.68342C13.8073 4.68781 12.4956 4.96057 11.2776 5.48526C10.0596 6.00995 8.96053 6.7757 8.04669 7.73633C7.13285 8.69697 6.42316 9.83259 5.96039 11.0747C5.49762 12.3169 5.29137 13.6398 5.35407 14.9637C5.29755 16.2976 5.51033 17.6293 5.97971 18.8792C6.4491 20.1292 7.16549 21.272 8.08619 22.2394C9.0069 23.2068 10.1131 23.9791 11.3388 24.5103C12.5645 25.0415 13.8847 25.3206 15.2206 25.3311C16.5482 25.3286 17.8615 25.0573 19.0812 24.5335C20.3009 24.0097 21.4016 23.2442 22.317 22.2834C23.2324 21.3225 23.9434 20.1863 24.4071 18.9431C24.8707 17.7 25.0774 16.3759 25.0147 15.0507C25.0692 13.7168 24.8545 12.3856 24.3833 11.1364C23.9122 9.88711 23.1942 8.74544 22.2721 7.77938C21.3501 6.81331 20.2428 6.04261 19.0164 5.51321C17.79 4.98381 16.4695 4.70654 15.1336 4.69792" fill="black"/>
<path d="M51.6689 12.6728C57.8065 14.1227 60.9986 16.3557 60.9986 21.2131C60.9986 26.6795 56.7328 29.913 50.6242 29.913C46.1515 29.935 41.8332 28.2793 38.5232 25.2731L41.5992 21.6191C44.0595 24.0145 47.3491 25.3699 50.7838 25.4036C53.9324 25.4036 55.9348 23.9536 55.9348 21.7206C55.9348 19.4876 54.774 18.4872 49.3764 17.2402C43.1953 15.7902 39.713 13.9197 39.713 8.54033C39.713 3.49442 43.8627 0.0869748 49.6231 0.0869748C53.4561 0.00731782 57.1917 1.29794 60.1571 3.72641L57.4002 7.58335C55.1701 5.75783 52.4024 4.71364 49.5215 4.6109C46.5325 4.6109 44.7913 6.13337 44.7913 8.09084C44.7913 10.3673 46.1262 11.3678 51.6834 12.6873" fill="black"/>
<path d="M84.6349 30C82.673 30.0201 80.7272 29.6451 78.9135 28.8975C77.0998 28.1498 75.4553 27.0448 74.0782 25.6483C72.7011 24.2518 71.6195 22.5925 70.898 20.7693C70.1764 18.946 69.8297 16.9963 69.8786 15.0362C69.8313 13.0561 70.1852 11.0869 70.9192 9.24696C71.6531 7.40706 72.7518 5.7345 74.1493 4.32987C75.5467 2.92525 77.214 1.81758 79.0509 1.07348C80.8878 0.329388 82.8563 -0.0357602 84.838 -1.47428e-06C86.9425 -0.0773599 89.0399 0.285043 90.9962 1.06403C92.9525 1.84302 94.7246 3.02144 96.1991 4.52392L92.9199 8.29386C91.8695 7.18791 90.6111 6.29977 89.2169 5.68026C87.8226 5.06074 86.3199 4.722 84.7945 4.68342C79.2373 4.68342 75.2181 9.23634 75.2181 14.9637C75.2181 20.6912 79.2373 25.3166 84.7945 25.3166C88.3639 25.3166 90.5984 23.8666 93.1376 21.5466L96.4167 24.8671C94.9573 26.543 93.1428 27.8732 91.1049 28.761C89.067 29.6489 86.8569 30.0721 84.6349 30Z" fill="black"/>
<path d="M132.865 29.507H127.482L124.58 22.5036H110.81L107.836 29.507H102.612L115.366 0.289978H120.097L132.865 29.507ZM117.644 6.37988L112.668 17.9797H122.665L117.644 6.37988Z" fill="black"/>
<path d="M160.608 29.507L153.469 19.3572H147.085V29.507H141.992V0.492981H154.934C161.609 0.492981 165.715 4.01642 165.715 9.68583C165.789 11.7371 165.135 13.7485 163.869 15.3644C162.602 16.9804 160.804 18.0967 158.794 18.5162L166.629 29.4925L160.608 29.507ZM154.513 5.1474H147.085V14.8767H154.542C158.199 14.8767 160.52 12.9773 160.52 9.99032C160.52 7.00337 158.271 5.1474 154.513 5.1474Z" fill="black"/>
<path d="M224.247 0.405975H228.556L235.695 21.9961L242.616 0.492974H247.97L237.857 29.71H233.461L226.322 8.87383L219.198 29.71H214.787L204.673 0.492974H210.187L217.123 21.9961L224.247 0.405975Z" fill="black"/>
<path d="M270.199 29.507H265.048V18.0667L253.542 0.492981H259.549L267.66 13.3398L275.872 0.492981H281.72L270.199 17.9362V29.507Z" fill="black"/>
<path d="M289.526 0.492981H294.619V24.8526H309.883V29.507H289.526V0.492981Z" fill="black"/>
<path d="M340.034 5.04591H323.609V12.6003H336.987V17.1532H323.609V24.9396H340.237V29.507H318.516V0.492981H340.034V5.04591Z" fill="black"/>
<path d="M372.797 5.04591H356.372V12.6003H369.735V17.1532H356.372V24.9396H373V29.507H351.265V0.492981H372.797V5.04591Z" fill="black"/>
<path d="M186.014 -8.7209e-06H185.927C183.823 -0.0792414 181.727 0.280881 179.77 1.05735C177.814 1.83381 176.042 3.00955 174.566 4.50942L177.83 8.29385C178.858 7.15885 180.111 6.25162 181.511 5.63071C182.91 5.00979 184.425 4.68898 185.956 4.68898C187.487 4.68898 189.001 5.00979 190.401 5.63071C191.801 6.25162 193.054 7.15885 194.081 8.29385L197.331 4.50942C195.861 3.01506 194.095 1.84253 192.147 1.06625C190.199 0.289959 188.11 -0.0731401 186.014 -8.7209e-06Z" fill="black"/>
</g>
<defs>
<clipPath id="clip0_1_4">
<rect width="373" height="30" fill="white"/>
</clipPath>
</defs>
</svg>
